<svg version="1.2" xmlns="http://www.w3.org/2000/svg" viewBox="0 0 1500 500" width="1500" height="500">
	<style>
		.s0 { fill: #000000 } 
		.s1 { fill: #ffffff } 
		.s2 { fill: #ebe1c0 } 
		.s3 { fill: #ffc300 } 
	</style>
	<path id="Layer copy 31" fill-rule="evenodd" class="s0" d="m819.03 115.08c4.4 0 8.44 2.42 10.51 6.3 1.17 2.18 1.61 4.63 1.33 7h13.56c-0.23-1.98 0.03-4.02 0.82-5.94 1.89-4.56 6.4-7.49 11.34-7.36l103.15 2.79h0.79c11.5 0 21.81 5.11 28.77 13.19l10.94 0.46c5.94-7.97 15.66-12.93 26.39-12.26v-0.01l79.52 3.99 0.22 0.01c15.75 1.08 28.08 13.99 28.44 29.77l2.77 121.29c0.46 20.24-18.54 35.32-38.14 30.27h-0.03q-0.02-0.01-0.02-0.01l-7.34-1.86c-66.12-15.77-147.19-29.34-213.52-34.75-76.32-6.23-155.3-6.27-231.53 1-51.86 4.94-103.74 11.51-166.25 22.76-1.35 0.52-2.8 0.8-4.28 0.8q-0.06 0-0.12 0c-27.72 5.05-57.55 11.01-90.39 18.16q-0.21 0.06-0.43 0.12c-11.01 3.23-21.28-8.49-15.39-19.19l0.36-0.69c3.64-7.2 4.66-18.52 4.62-29.79l-0.31-93.71c-0.01-3.96-2.16-7.6-5.62-9.53-4.52-2.52-6.9-7.67-5.88-12.75 1.02-5.07 5.19-8.92 10.34-9.51l65.16-7.44c4.92-0.56 9.67 1.97 11.94 6.37q0.61 1.19 0.94 2.44l21.8-2.61q0.25-1.52 0.89-2.96c1.83-4.07 5.78-6.79 10.24-7.03l104.26-5.58c3.9-0.21 7.66 1.51 10.05 4.59 1.15 1.48 1.92 3.19 2.27 4.97h5.15q2.01-2.33 4.41-4.29c6.39-5.23 14.39-8.08 22.64-8.08h77.13c5.53 0 10.34 3.8 11.61 9.18q0.37 1.6 0.31 3.19h19.58c-0.24-2.1 0.07-4.26 0.97-6.26 1.92-4.29 6.18-7.04 10.87-7.04zm-436.98 184.3q-0.03 0.01-0.06 0.01h0.05q0 0 0.01-0.01zm-0.06 0.01l-0.06 0.01q0.03 0 0.06-0.01zm-0.95-2.89q0.03-0.05 0.06-0.11-0.03 0.06-0.06 0.11zm-0.26 0.49l-0.19 0.36q0.09-0.18 0.19-0.36zm0.07-0.12q0.09-0.18 0.19-0.37-0.13 0.25-0.26 0.49zm0.98-2q-0.01 0.01-0.01 0.01 0 0 0.01-0.01zm-0.01 0.01q0 0.01-0.01 0.02l-0.23 0.5q0.12-0.25 0.24-0.52zm580.06-165.05h-0.03q0.37 0.01 0.74 0.04-0.35-0.02-0.71-0.04zm-0.67-0.03l0.64 0.03q-0.32-0.02-0.64-0.03zm-331.38-1.6q-0.23 0.04-0.45 0.07 0.28-0.04 0.56-0.09zm-0.45 0.08q-0.02 0-0.05 0.01 0.03-0.01 0.05-0.01zm0.57-0.09l0.39-0.06q-0.19 0.03-0.39 0.06z"/>
	<path id="Layer copy 32" fill-rule="evenodd" class="s1" d="m1006.14 149.73c0-10.78 9.14-19.31 19.89-18.57l79.52 3.98c9.6 0.66 17.12 8.53 17.34 18.15l1.25 64.31-37.94-7.38v-28.15c0-3.79-2.86-6.98-6.63-7.4l-26.99-3c-4.41-0.49-8.27 2.96-8.27 7.4v26.35l-38.17-5.99z"/>
	<path id="Layer copy 33" class="s2" d="m1020.09 272.11l82.29 20.92c11.96 3.1 23.56-6.09 23.28-18.45l-1.52-56.98-37.94-7.38v38.55c0 4.83-4.53 8.38-9.22 7.23l-26.99-6.6c-3.34-0.81-5.68-3.8-5.68-7.23v-36.75l-38.17-5.99v54.66c0 8.48 5.73 15.89 13.95 18.02z"/>
	<path id="Layer copy 34" fill-rule="evenodd" class="s1" d="m873.95 162.98v36.45h30.72v-28.4c0-6.29-1.6-12.47-4.65-17.96h41.89c7.2 0 13.03 5.83 13.03 13.03v33.33h31.65v-43.57c0-14.4-11.67-26.07-26.06-26.07h-0.93l-103.33-2.79 3.73 3.54c8.91 8.44 13.95 20.17 13.95 32.44z"/>
	<path id="Layer copy 35" class="s2" d="m960.39 260.94l2.38-0.31c11.09-1.44 20.31-9.27 23.52-20q0.3-0.99 0.3-2.03v-39.17h-31.65v17.12c0 7.48-6.28 13.43-13.75 13.01l-33-1.83c-1.97-0.11-3.52-1.74-3.52-3.72v-24.58h-30.72v55.1l84.85 6.46q0.79 0.06 1.59-0.05z"/>
	<path id="Layer copy 36" fill-rule="evenodd" class="s1" d="m615.51 141.63l0.63-1.16c1.48-2.75 3.48-5.18 5.89-7.15 4.26-3.48 9.59-5.39 15.09-5.39h73.41c-4.46 2.23-3.2 26.07 0 33.51h-62.37v37.24h-36.3v-42.57c0-5.06 1.25-10.03 3.65-14.48zm65.23 57.8c0-5.23-2.17-10.22-6-13.78 13.97 0.93 17.69 0.93 34.45 0v13.78z"/>
	<path id="Layer copy 37" fill-rule="evenodd" class="s1" d="m736.77 210.22l3.78-11.54h0.01zm101.2-10.8l3.63 9.49-3.64-9.49zm0 0l-97.41-0.75 17.27-52.65c2.16-6.59 0.66-13.84-3.96-19.03h65.16c-3.5 5.26-4.24 11.89-1.98 17.79zm-68.27-0.75h38.17l-21.41-43.75z"/>
	<path id="Layer copy 38" fill-rule="evenodd" class="s1" d="m582.59 198.68v-18.62l-43.34 2.79v-20.48l27.61-1.97c7.61-0.54 15.26 0.12 22.66 1.97-1.86-12.1-3.21-21.41 0-31.65l-100.54 3.73c7.24 9.05 11.28 20.25 11.48 31.84v39.13z"/>
	<path id="Layer copy 39" fill-rule="evenodd" class="s1" d="m376.86 145.62l63.3-5.59c-8.05 8.99-12.49 20.65-12.44 32.72l0.21 48.28-0.05-12.11-39.12 5.95 0.03 10.8-0.2-60.16c-0.02-8.26-4.51-15.87-11.73-19.89z"/>
	<path id="Layer copy 40" class="s2" d="m480.19 246.15l-52.13 6.52-0.13-31.64-0.05-12.11-39.12 5.95 0.03 10.8 0.11 33.56c0.04 11.57-0.88 26.12-6.45 36.26-0.61 1.1 0.47 2.38 1.67 1.98 33.82-9.06 69.07-16.87 92.35-16.87-2.98-12.66-1.56-26.07 3.72-34.45z"/>
	<path id="Layer copy 41" class="s2" d="m502.01 255.46l-2.27 19.55c17.68-6.52 54.36-15.82 96.81-15.82-7.03-7.45-10.24-17.69-7.03-29.79l-50.27 3.72v-20.48l43.34-3.72v-10.24l-82.13 6.74z"/>
	<path id="Layer copy 42" class="s2" d="m613.82 243.03l0.25 0.54c1.59 3.51 4.17 6.48 7.42 8.55 3.43 2.17 7.44 3.25 11.49 3.08l76.21-3.46v-52.31h-28.45v21.59h-32.58v-22.34h-36.3v35.28c0 3.13 0.67 6.22 1.96 9.07z"/>
	<path id="Layer copy 43" class="s2" d="m723.15 251.74l42.82-3.73 3.73-26.99h40.02l7.45 26.99 41.89 6.52-17.46-45.61-3.63-9.49-97.42-0.75-3.78 11.54z"/>
	<path id="Layer copy 44" class="s3" d="m441.86 141.56c-7.68 8.56-11.9 19.68-11.85 31.18l0.32 77.34 54.36-6.79-2.57 4.08c-4.85 7.71-6.32 20.44-3.43 32.7l0.66 2.81h-2.88c-22.93 0-57.91 7.73-91.76 16.8-3.06 0.9-5.88-2.36-4.26-5.29 5.26-9.57 6.21-23.57 6.17-35.15l-0.31-93.72c-0.03-7.44-4.06-14.28-10.56-17.91l-6.49-3.62 76.46-6.74zm562 8.17c0-12.1 10.25-21.68 22.33-20.85l79.48 3.99h0.02 0.02c10.78 0.74 19.22 9.57 19.46 20.37l2.78 121.29c0.31 13.87-12.71 24.19-26.14 20.72l-82.29-20.92-0.01-0.01c-9.22-2.39-15.65-10.71-15.65-20.23zm-620.8-2.37c4.9 4.67 7.79 11.19 7.82 18.15l0.31 93.71c0.04 10.92-0.76 25-5.81 35.55 31.93-8.5 65.17-15.85 88.28-16.42-1.93-10.43-1.08-21.22 2.48-29.39l-50.35 6.29-0.35-82.49c-0.04-10.81 3.34-21.29 9.59-29.98zm208.65-15.96c-3.03 9.66-1.8 18.45 0.08 30.62l0.52 3.39-3.33-0.83c-7.17-1.79-14.58-2.43-21.94-1.91l-25.49 1.82v15.92l43.33-2.79v33.39l-43.33 3.72v15.92l51.01-3.77-0.82 3.09c-3.01 11.34-0.01 20.76 6.48 27.64l3.64 3.85h-5.3c-42.15 0-78.56 9.25-96.02 15.69l-3.49 1.28 2.69-23.08-1.55-89.03c-0.19-11.09-4.05-21.8-10.98-30.45l-2.83-3.54 108.3-4.02zm-98.33 5.17c5.92 8.75 9.19 19.05 9.37 29.68l1.56 89.17v0.15l-1.87 16.06c18.19-6.21 51.21-14.07 89.34-14.69-4.82-6.85-6.94-15.38-5.16-25.04l-49.65 3.68v-25.04l43.34-3.72v-24.33l-43.34 2.8v-25.05l29.74-2.12c6.72-0.48 13.46-0.04 20.06 1.29-1.42-9.45-2.3-17.65-0.27-26.29zm495.51 102.02q-0.01 1.38-0.4 2.7c-3.47 11.58-13.43 20.04-25.42 21.61l-2.37 0.31q-1.03 0.13-2.05 0.06h-0.02l-86.95-6.62v-93.68c0-11.64-4.79-22.77-13.24-30.78l-8.06-7.64 109.25 2.96h0.91c15.65 0 28.35 12.69 28.35 28.34zm19.54 15.5c0 7.44 5.03 13.93 12.23 15.8l82.29 20.93h0.01c10.49 2.72 20.68-5.35 20.43-16.19l-2.77-121.29c-0.2-8.43-6.78-15.33-15.19-15.92l-79.5-3.98h-0.02-0.02c-9.44-0.65-17.46 6.83-17.46 16.29zm-185.12-129.37l-2.37 3.55c-3.09 4.64-3.74 10.49-1.75 15.7l43.42 113.43-47.24-7.35-7.38-26.74h-36.3l-3.7 26.83-48.08 4.18 35.75-109c1.91-5.82 0.58-12.22-3.49-16.8l-3.38-3.8zm-65.01 4.57c2.95 5.26 3.63 11.59 1.71 17.45l-33.6 102.43 37.56-3.27 3.75-27.16h43.75l7.52 27.25 36.54 5.68-40.61-106.07c-2.03-5.32-1.88-11.17 0.31-16.31zm226.03 26.57c0-13.13-10.65-23.78-23.78-23.78h-0.96-0.04l-97.37-2.63c9 8.82 14.08 20.9 14.08 33.53v89.44l82.72 6.3q0.57 0.04 1.14-0.04l2.37-0.31c10.21-1.33 18.68-8.53 21.64-18.39q0.2-0.67 0.2-1.38zm-273.78-30.21l1.02 4.33c0.16-0.08-0.03-0.06-0.34 0.65q-0.44 0.96-0.76 2.82c-0.43 2.47-0.59 5.73-0.51 9.23 0.07 3.49 0.38 7.14 0.87 10.36 0.49 3.26 1.14 5.91 1.82 7.5l1.37 3.19h-63.55v55.01h28.01v-19.31c0-4.59-1.91-8.98-5.27-12.11l-4.71-4.38 6.41 0.43c13.86 0.92 17.49 0.92 34.17 0l2.41-0.14v70.69l-78.39 3.57c-4.53 0.19-9-1.02-12.81-3.45-3.63-2.3-6.5-5.61-8.28-9.52l-0.25-0.55c-1.43-3.14-2.17-6.55-2.17-10.01v-77.85c0-5.43 1.35-10.78 3.92-15.56l0.63-1.16c1.62-3.01 3.82-5.67 6.46-7.84 4.67-3.82 10.51-5.9 16.54-5.9zm100.99 75.31h-45.15l19.82-51.75zm-38.5-4.57h31.18l-17.49-35.75zm269 45.78v-63.1c0-5.8 5.04-10.31 10.81-9.67l26.99 3c4.93 0.54 8.66 4.71 8.66 9.67v66.7c0 6.3-5.91 10.95-12.04 9.45l-27-6.6c-4.35-1.07-7.42-4.97-7.42-9.45zm-84.79-25.62c0 8.79-7.39 15.78-16.17 15.29l-33-1.83c-3.18-0.18-5.67-2.81-5.67-6v-52.99c0-5.89-1.5-11.69-4.37-16.85l-1.88-3.39h45.77c8.46 0 15.32 6.86 15.32 15.31zm-343.08 17.42c0 2.8 0.6 5.56 1.76 8.11l0.24 0.55c1.42 3.1 3.7 5.73 6.57 7.56 3.03 1.93 6.58 2.88 10.17 2.73l74.02-3.36v-61.5c-12.7 0.68-17.54 0.75-27.08 0.2 2.07 3.32 3.2 7.18 3.2 11.17v23.88h-37.15v-64.15h61.5c-0.43-1.63-0.79-3.49-1.08-5.44-0.52-3.42-0.84-7.26-0.92-10.94-0.08-3.66 0.08-7.24 0.57-10.1q0.22-1.3 0.57-2.46h-69.39c-4.98 0-9.8 1.72-13.65 4.87-2.18 1.78-3.99 3.98-5.33 6.46l-0.63 1.17c-2.21 4.11-3.37 8.72-3.37 13.39zm338.51-17.41v-50.46c0-5.93-4.81-10.74-10.75-10.74h-38.22c2.15 4.93 3.27 10.27 3.27 15.67v52.99c0 0.76 0.59 1.4 1.36 1.44l32.99 1.83c6.16 0.34 11.35-4.56 11.35-10.73zm93.93 25.62c0 2.38 1.63 4.45 3.94 5.01l26.99 6.6c3.26 0.8 6.39-1.67 6.39-5.01v-66.7c0-2.63-1.98-4.84-4.59-5.13l-27-3c-3.05-0.34-5.73 2.05-5.73 5.13z"/>
	<path id="Layer copy 45" class="s0" d="m969.21 343.97h-10.43v-31.71l-9.07 19.35-9.03-19.35v31.71h-10.39v-56.3h10.39l9.03 19.36 9.07-19.36h10.43z"/>
	<path id="Layer copy 46" class="s0" d="m914.67 343.97l-2.51-12.54h-10.9l-2.51 12.54h-10.6l11.25-56.3h14.62l11.25 56.3zm-4.59-22.93l-3.37-16.84-3.37 16.84z"/>
	<path id="Layer copy 47" class="s0" d="m883.09 343.97h-27.13v-56.3h26.92v10.4h-16.52v12.54h14.22v10.43h-14.22v12.54h16.73z"/>
	<path id="Layer copy 48" class="s0" d="m850.91 298.07h-10.32v45.9h-10.43v-45.9h-10.32v-10.4h31.07z"/>
	<path id="Layer copy 49" class="s0" d="m796.87 338.06l-6.81 5.91h-18.96l-6.66-5.87v-50.43h10.39v45.91h11.65v-45.91h10.39z"/>
	<path id="Layer copy 50" class="s0" d="m759.38 338.1l-6.62 5.87h-17.96l-6.7-5.87v-9.07h10.39v4.55h10.5v-12.54h-14.19l-6.7-5.91v-21.54l6.7-5.92h17.96l6.62 5.88v8.75h-10.39v-4.23h-10.5v12.54h14.27l6.62 5.91z"/>
	<path id="Layer copy 51" class="s0" d="m723.05 298.07h-10.32v45.9h-10.43v-45.9h-10.32v-10.4h31.07z"/>
	<path id="Layer copy 52" class="s0" d="m686.92 343.97h-10.43v-56.3h10.43z"/>
	<path id="Layer copy 53" class="s0" d="m671.48 338.1l-6.7 5.87h-16.88l-6.67-5.87v-9.07h10.39v4.55h9.47v-45.91h10.39z"/>
	<path id="Layer copy 54" class="s0" d="m613.24 338.06l-6.81 5.91h-18.95l-6.67-5.87v-50.43h10.39v45.91h11.65v-45.91h10.39z"/>
	<path id="Layer copy 55" class="s0" d="m575.76 343.97h-10.43v-56.3h10.43z"/>
	<path id="Layer copy 56" class="s0" d="m560.31 338.1l-6.7 5.87h-16.88l-6.66-5.87v-9.07h10.39v4.55h9.46v-45.91h10.39z"/>
	<path id="Layer copy 57" class="s0" d="m521.13 321.03v-15.32c0-0.64-0.57-1.12-1.2-1.02l-49.38 7.99c-1.17 0.19-1.16 1.88 0.01 2.05l49.38 7.33c0.63 0.09 1.19-0.39 1.19-1.03z"/>
	<path id="Layer copy 58" class="s0" d="m984.83 321.03v-15.32c0-0.64 0.57-1.12 1.2-1.02l49.38 7.99c1.17 0.19 1.16 1.88-0.01 2.05l-49.38 7.33c-0.63 0.09-1.19-0.39-1.19-1.03z"/>
	<path id="Layer copy 59" class="s0" d="m623.26 308.33h24.9v7.12h-24.9z"/>
	<path id="Layer copy 60" class="s0" d="m749.43 385.52l-100.59-29.2c-1.21-0.35-0.83-2.14 0.42-1.98l100.32 13.23q0.13 0.01 0.26 0l100.33-13.23c1.24-0.16 1.62 1.63 0.41 1.98l-100.59 29.2q-0.28 0.08-0.56 0z"/>
</svg>